<svg width="40" height="40" viewBox="0 0 40 40" fill="none" xmlns="http://www.w3.org/2000/svg">
<path d="M27.618 9.65927C26.4835 8.3641 25.8583 6.7008 25.8587 4.979H20.7303V25.5589C20.6908 26.6726 20.2206 27.7275 19.4188 28.5014C18.617 29.2753 17.5462 29.7079 16.4318 29.7081C14.0751 29.7081 12.1167 27.7829 12.1167 25.393C12.1167 22.5383 14.8717 20.3973 17.7097 21.277V16.0324C11.9839 15.269 6.97168 19.7169 6.97168 25.393C6.97168 30.9197 11.5524 34.8531 16.4152 34.8531C21.6266 34.8531 25.8587 30.6209 25.8587 25.393V14.9536C27.9383 16.4471 30.435 17.2484 32.9953 17.244V12.1156C32.9953 12.1156 29.8751 12.265 27.618 9.65927Z" fill="white"/>
</svg>
