<svg width="40" height="40" viewBox="0 0 40 40" fill="none" xmlns="http://www.w3.org/2000/svg">
<path d="M31.7017 4.979C32.582 4.979 33.4263 5.32872 34.0488 5.95122C34.6713 6.57371 35.021 7.418 35.021 8.29834V31.5337C35.021 32.4141 34.6713 33.2584 34.0488 33.8809C33.4263 34.5034 32.582 34.8531 31.7017 34.8531H8.46631C7.58597 34.8531 6.74168 34.5034 6.11918 33.8809C5.49669 33.2584 5.14697 32.4141 5.14697 31.5337V8.29834C5.14697 7.418 5.49669 6.57371 6.11918 5.95122C6.74168 5.32872 7.58597 4.979 8.46631 4.979H31.7017ZM30.8719 30.7039V21.9076C30.8719 20.4727 30.3018 19.0965 29.2872 18.0818C28.2725 17.0672 26.8963 16.4971 25.4613 16.4971C24.0506 16.4971 22.4075 17.3601 21.6109 18.6547V16.8125H16.9804V30.7039H21.6109V22.5217C21.6109 21.2438 22.6399 20.1982 23.9178 20.1982C24.5341 20.1982 25.1251 20.443 25.5608 20.8787C25.9966 21.3145 26.2414 21.9055 26.2414 22.5217V30.7039H30.8719ZM11.5865 14.2068C12.326 14.2068 13.0352 13.913 13.5581 13.3901C14.081 12.8672 14.3747 12.158 14.3747 11.4185C14.3747 9.87503 13.13 8.61368 11.5865 8.61368C10.8426 8.61368 10.1292 8.90919 9.60317 9.4352C9.07716 9.96121 8.78165 10.6746 8.78165 11.4185C8.78165 12.962 10.043 14.2068 11.5865 14.2068ZM13.8934 30.7039V16.8125H9.29615V30.7039H13.8934Z" fill="white"/>
</svg>
