<svg width="40" height="41" viewBox="0 0 40 41" fill="none" xmlns="http://www.w3.org/2000/svg">
<path d="M37.276 10.917C35.998 11.4979 34.6205 11.8796 33.1932 12.0622C34.6537 11.1825 35.7823 9.78842 36.3134 8.11215C34.9358 8.94199 33.4089 9.52287 31.7991 9.85481C30.4879 8.42749 28.6457 7.59766 26.5545 7.59766C22.6543 7.59766 19.4677 10.7842 19.4677 14.7176C19.4677 15.2819 19.5341 15.8296 19.6503 16.3441C13.7418 16.0454 8.48069 13.2073 4.97878 8.9088C4.3647 9.95439 4.01617 11.1825 4.01617 12.4771C4.01617 14.95 5.26093 17.1408 7.18614 18.3855C6.00778 18.3855 4.9124 18.0536 3.94979 17.5557V17.6055C3.94979 21.0576 6.4061 23.9454 9.65905 24.5927C8.61467 24.8785 7.51824 24.9183 6.45589 24.7089C6.90667 26.1237 7.7895 27.3617 8.98028 28.2488C10.1711 29.136 11.6099 29.6276 13.0946 29.6547C10.5779 31.647 7.45832 32.7239 4.24853 32.7085C3.68424 32.7085 3.11995 32.6753 2.55566 32.6089C5.70904 34.6337 9.45989 35.8121 13.4763 35.8121C26.5545 35.8121 33.7409 24.9578 33.7409 15.5475C33.7409 15.2321 33.7409 14.9334 33.7243 14.6181C35.1184 13.6223 36.3134 12.3609 37.276 10.917Z" fill="white"/>
</svg>
