<svg width="40" height="41" viewBox="0 0 40 41" fill="none" xmlns="http://www.w3.org/2000/svg">
<path d="M16.6973 25.854L25.311 20.875L16.6973 15.896V25.854ZM35.8831 12.8588C36.0988 13.6389 36.2482 14.6844 36.3478 16.0122C36.464 17.3399 36.5137 18.4851 36.5137 19.4809L36.6133 20.875C36.6133 24.5097 36.3478 27.1818 35.8831 28.8912C35.4682 30.3849 34.5055 31.3475 33.0118 31.7625C32.2318 31.9782 30.8045 32.1276 28.6137 32.2272C26.4561 32.3433 24.4811 32.3931 22.6555 32.3931L20.0166 32.4927C13.0626 32.4927 8.73087 32.2272 7.02141 31.7625C5.5277 31.3475 4.56509 30.3849 4.15018 28.8912C3.93442 28.1112 3.78505 27.0656 3.68547 25.7379C3.56929 24.4101 3.5195 23.2649 3.5195 22.2691L3.41992 20.875C3.41992 17.2403 3.68547 14.5683 4.15018 12.8588C4.56509 11.3651 5.5277 10.4025 7.02141 9.98758C7.80145 9.77182 9.22877 9.62245 11.4195 9.52287C13.5771 9.40669 15.5521 9.3569 17.3777 9.3569L20.0166 9.25732C26.9706 9.25732 31.3024 9.52287 33.0118 9.98758C34.5055 10.4025 35.4682 11.3651 35.8831 12.8588Z" fill="white"/>
</svg>
