<svg width="40" height="40" viewBox="0 0 40 40" fill="none" xmlns="http://www.w3.org/2000/svg">
<path d="M13.0797 3.31934H27.0209C32.3319 3.31934 36.647 7.63448 36.647 12.9454V26.8867C36.647 29.4397 35.6328 31.8881 33.8276 33.6933C32.0224 35.4986 29.5739 36.5127 27.0209 36.5127H13.0797C7.76876 36.5127 3.45361 32.1976 3.45361 26.8867V12.9454C3.45361 10.3924 4.46779 7.94399 6.27303 6.13875C8.07827 4.33351 10.5267 3.31934 13.0797 3.31934ZM12.7478 6.63868C11.1631 6.63868 9.64343 7.26816 8.52294 8.38866C7.40244 9.50915 6.77295 11.0289 6.77295 12.6135V27.2186C6.77295 30.5213 9.44502 33.1934 12.7478 33.1934H27.3529C28.9375 33.1934 30.4572 32.5639 31.5777 31.4434C32.6982 30.3229 33.3277 28.8032 33.3277 27.2186V12.6135C33.3277 9.31075 30.6556 6.63868 27.3529 6.63868H12.7478ZM28.7636 9.12818C29.3138 9.12818 29.8415 9.34675 30.2305 9.73581C30.6196 10.1249 30.8382 10.6526 30.8382 11.2028C30.8382 11.753 30.6196 12.2807 30.2305 12.6697C29.8415 13.0588 29.3138 13.2774 28.7636 13.2774C28.2134 13.2774 27.6857 13.0588 27.2966 12.6697C26.9076 12.2807 26.689 11.753 26.689 11.2028C26.689 10.6526 26.9076 10.1249 27.2966 9.73581C27.6857 9.34675 28.2134 9.12818 28.7636 9.12818ZM20.0503 11.6177C22.2512 11.6177 24.3619 12.492 25.9181 14.0482C27.4744 15.6045 28.3487 17.7152 28.3487 19.916C28.3487 22.1169 27.4744 24.2276 25.9181 25.7839C24.3619 27.3401 22.2512 28.2144 20.0503 28.2144C17.8495 28.2144 15.7387 27.3401 14.1825 25.7839C12.6263 24.2276 11.752 22.1169 11.752 19.916C11.752 17.7152 12.6263 15.6045 14.1825 14.0482C15.7387 12.492 17.8495 11.6177 20.0503 11.6177ZM20.0503 14.937C18.7298 14.937 17.4634 15.4616 16.5296 16.3953C15.5959 17.3291 15.0713 18.5955 15.0713 19.916C15.0713 21.2366 15.5959 22.503 16.5296 23.4367C17.4634 24.3705 18.7298 24.895 20.0503 24.895C21.3708 24.895 22.6373 24.3705 23.571 23.4367C24.5048 22.503 25.0293 21.2366 25.0293 19.916C25.0293 18.5955 24.5048 17.3291 23.571 16.3953C22.6373 15.4616 21.3708 14.937 20.0503 14.937Z" fill="white"/>
</svg>
