<svg width="65" height="48" viewBox="0 0 65 48" fill="none" xmlns="http://www.w3.org/2000/svg">
<path fill-rule="evenodd" clip-rule="evenodd" d="M43.8739 0.784654C47.6025 -0.354 51.9042 -0.331673 55.42 1.37073C63.5389 5.31136 67.0547 15.4699 63.7871 26.2313C62.3217 31.0595 59.7395 35.748 54.2796 40.4757C48.8197 45.2089 41.2444 47.9997 37.7345 47.9997C37.4392 48.0042 37.1458 47.9535 36.8712 47.8506C36.5966 47.7478 36.3461 47.5947 36.1343 47.4003C35.9224 47.2058 35.7532 46.9738 35.6364 46.7175C35.5196 46.4612 35.4575 46.1856 35.4537 45.9066C35.4537 44.7512 36.4937 43.8135 37.7345 43.8135C41.7467 43.8135 45.3334 41.7483 49.582 38.7119C52.8319 36.3843 55.3727 33.4093 56.7732 30.8195C59.4617 25.863 59.5504 18.8747 55.2073 17.0161C54.199 18.0971 52.9564 18.9606 51.5637 19.5481C50.171 20.1355 48.6608 20.4332 47.1357 20.4209C40.0449 20.4209 35.8673 15.0346 36.0505 10.1562C36.2218 5.49556 39.3595 2.17448 43.8739 0.784654ZM8.42025 0.784654C12.1488 -0.354 16.4505 -0.331673 19.9663 1.37073C28.0852 5.31136 31.601 15.4699 28.3334 26.2313C26.868 31.0595 24.2858 35.748 18.8259 40.4757C13.366 45.2089 5.79077 47.9997 2.28085 47.9997C1.98548 48.0042 1.69209 47.9535 1.41749 47.8506C1.14288 47.7478 0.892467 47.5947 0.680586 47.4003C0.468704 47.2058 0.299522 46.9738 0.182734 46.7175C0.065947 46.4612 0.00384971 46.1856 0 45.9066C0 44.7512 1.03997 43.8135 2.28085 43.8135C6.29303 43.8135 9.87976 41.7483 14.1283 38.7119C17.3782 36.3843 19.9191 33.4093 21.3195 30.8195C24.008 25.863 24.0967 18.8747 19.7536 17.0161C17.6677 19.1706 14.9437 20.4209 11.682 20.4209C4.59125 20.4209 0.413627 15.0346 0.596804 10.1562C0.768163 5.49556 3.90581 2.17448 8.42025 0.784654Z" fill="black" fill-opacity="0.47"/>
</svg>
